<svg width="14" height="14" viewBox="0 0 14 14" fill="none" xmlns="http://www.w3.org/2000/svg">
<path d="M13.8543 6.64617L12.8548 5.64664L7.35455 0.14641C7.15931 -0.0488034 6.84277 -0.0488034 6.64753 0.14641L1.14727 5.64664L0.147236 6.6467C-0.044608 6.84534 -0.0391292 7.16188 0.159512 7.35372C0.35329 7.54088 0.660481 7.54088 0.854259 7.35372L1.00025 7.20671V13.5C1.00025 13.7761 1.22412 14 1.50028 14H12.5008C12.7769 14 13.0008 13.7761 13.0008 13.5V7.20671L13.1473 7.35323C13.3459 7.54507 13.6625 7.53956 13.8543 7.34095C14.0415 7.14717 14.0415 6.83995 13.8543 6.64617ZM8.50061 13H5.50048V8.99978H8.50061V13ZM12.0007 13H9.50064V8.49978C9.50064 8.22361 9.27677 7.99975 9.00061 7.99975H5.00044C4.72428 7.99975 4.50041 8.22361 4.50041 8.49978V13H2.00031V6.20667L7.00051 1.20645L12.0007 6.20667V13Z" fill="#626262"/>
</svg>
